<?xml version="1.0" encoding="UTF-8" standalone="no"?>
<svg
   width="90.22657mm"
   height="86.483437mm"
   viewBox="0 0 90.22657 86.483437"
   version="1.1"
   id="svg8"
   inkscape:version="1.3 (0e150ed6c4, 2023-07-21)"
   sodipodi:docname="trace_of_double_braiding.svg"
   inkscape:export-filename="trace_of_double_braiding.png"
   inkscape:export-xdpi="96"
   inkscape:export-ydpi="96"
   xmlns:inkscape="http://www.inkscape.org/namespaces/inkscape"
   xmlns:sodipodi="http://sodipodi.sourceforge.net/DTD/sodipodi-0.dtd"
   xmlns="http://www.w3.org/2000/svg"
   xmlns:svg="http://www.w3.org/2000/svg"
   xmlns:rdf="http://www.w3.org/1999/02/22-rdf-syntax-ns#"
   xmlns:cc="http://creativecommons.org/ns#"
   xmlns:dc="http://purl.org/dc/elements/1.1/">
  <defs
     id="defs2" />
  <sodipodi:namedview
     id="base"
     pagecolor="#ffffff"
     bordercolor="#666666"
     borderopacity="1.0"
     inkscape:pageopacity="0.0"
     inkscape:pageshadow="2"
     inkscape:zoom="1.979899"
     inkscape:cx="302.03561"
     inkscape:cy="300.0153"
     inkscape:document-units="mm"
     inkscape:current-layer="layer1"
     inkscape:document-rotation="0"
     showgrid="false"
     inkscape:window-width="931"
     inkscape:window-height="1008"
     inkscape:window-x="0"
     inkscape:window-y="0"
     inkscape:window-maximized="1"
     inkscape:showpageshadow="2"
     inkscape:pagecheckerboard="0"
     inkscape:deskcolor="#d1d1d1" />
  <metadata
     id="metadata5">
    <rdf:RDF>
      <cc:Work
         rdf:about="">
        <dc:format>image/svg+xml</dc:format>
        <dc:type
           rdf:resource="http://purl.org/dc/dcmitype/StillImage" />
        <dc:title />
      </cc:Work>
    </rdf:RDF>
  </metadata>
  <g
     inkscape:label="Layer 1"
     inkscape:groupmode="layer"
     id="layer1"
     transform="translate(-60.49352,-39.895285)">
    <path
       id="path1"
       style="fill-opacity:0;stroke:#000000;stroke-width:0.264999"
       d="m 68.450073,69.703603 c -2.303161,-2.562529 -3.696459,-4.998831 -2.432026,-7.213375 7.642037,-13.384366 22.48329,-22.462445 39.539323,-22.462446 24.8695,-2e-6 45.03022,19.300653 45.03022,43.109219 0,23.808569 -20.16072,43.109219 -45.03022,43.109219 -12.43475,0 -23.692298,-4.82517 -31.841169,-12.6264 -2.840541,-2.71936 -7.680847,-7.5817 -9.684112,-10.94598 -3.743648,-6.287081 13.007835,-11.746407 13.007835,-19.501081 0,-4.179262 -2.219606,-7.101361 -6.288473,-11.138912"
       sodipodi:nodetypes="csssssssc" />
    <path
       id="path1-3"
       style="fill-opacity:0;stroke:#000000;stroke-width:0.208202"
       d="m 66.954945,93.575575 c -3.923802,-3.454799 -6.357323,-5.924986 -6.357323,-9.900512 0,-5.305852 13.351261,-16.464006 15.498441,-20.95369 5.556103,-11.617632 15.232977,-14.068153 28.997727,-14.068152 19.08419,10e-7 34.55499,15.431261 34.55499,34.466683 0,19.035426 -15.47079,34.466686 -34.55499,34.466686 -11.77282,0 -22.170555,-5.87239 -28.409593,-14.84066 -1.365267,-1.9625 -5.224282,-5.228071 -7.757612,-7.399329"
       sodipodi:nodetypes="cssssssc"
       inkscape:export-filename="path1-3.png"
       inkscape:export-xdpi="96"
       inkscape:export-ydpi="96" />
  </g>
</svg>
